<?xml version="1.0" encoding="UTF-8" standalone="no"?>
<!-- Created with Inkscape (http://www.inkscape.org/) -->

<svg
   xmlns:dc="http://purl.org/dc/elements/1.1/"
   xmlns:cc="http://creativecommons.org/ns#"
   xmlns:rdf="http://www.w3.org/1999/02/22-rdf-syntax-ns#"
   xmlns:svg="http://www.w3.org/2000/svg"
   xmlns="http://www.w3.org/2000/svg"
   xmlns:sodipodi="http://sodipodi.sourceforge.net/DTD/sodipodi-0.dtd"
   xmlns:inkscape="http://www.inkscape.org/namespaces/inkscape"
   width="220mm"
   height="50mm"
   viewBox="0 0 779.52756 177.16535"
   id="svg2"
   version="1.1"
   inkscape:version="0.91 r13725"
   sodipodi:docname="fl-logo.svg">
  <defs
     id="defs4" />
  <sodipodi:namedview
     id="base"
     pagecolor="#ffffff"
     bordercolor="#666666"
     borderopacity="1.0"
     inkscape:pageopacity="0.0"
     inkscape:pageshadow="2"
     inkscape:zoom="0.7"
     inkscape:cx="307.43529"
     inkscape:cy="0.99509654"
     inkscape:document-units="px"
     inkscape:current-layer="layer1"
     showgrid="false"
     inkscape:window-width="1366"
     inkscape:window-height="744"
     inkscape:window-x="1920"
     inkscape:window-y="312"
     inkscape:window-maximized="1" />
  <metadata
     id="metadata7">
    <rdf:RDF>
      <cc:Work
         rdf:about="">
        <dc:format>image/svg+xml</dc:format>
        <dc:type
           rdf:resource="http://purl.org/dc/dcmitype/StillImage" />
        <dc:title></dc:title>
      </cc:Work>
    </rdf:RDF>
  </metadata>
  <g
     inkscape:label="Layer 1"
     inkscape:groupmode="layer"
     id="layer1"
     transform="translate(0,-875.19685)">
    <path
       style="fill:#000000"
       d="m 47.469178,1001.2587 c -0.825,-0.5331 -2.404219,-0.9762 -3.509376,-0.9847 -2.775039,-0.021 -41.4906243,-38.81492 -41.4906243,-41.57442 0,-1.12247 -0.551232,-2.59208 -1.22496,-3.26581 -0.96661299,-0.96661 -0.96661299,-1.63864 0,-3.18643 0.673728,-1.07881 1.22496,-2.75883 1.22496,-3.73338 0,-0.97662 9.9900403,-11.75454 22.2581553,-24.01356 17.232639,-17.21988 22.827294,-22.24167 24.778889,-22.24167 3.080629,0 14.962959,11.52777 14.962959,14.51648 0,1.20685 -6.63886,8.60967 -17.239287,19.2231 l -17.239283,17.26042 17.239283,17.26042 c 13.251967,13.26828 17.239287,17.84718 17.239287,19.79708 0,3.1368 -6.66244,9.94247 -9.73315,9.94247 -1.18185,0 -2.426934,0.45 -2.766853,1 -0.776412,1.2562 -2.556074,1.2562 -4.5,0 z m 651.000012,-0.7549 c -3.65155,-0.58867 -12,-9.07417 -12,-12.19707 0,-1.9376 4.02126,-6.5533 17.23928,-19.78758 l 17.23929,-17.26042 -17.23929,-17.26042 c -10.92434,-10.93774 -17.23928,-17.99981 -17.23928,-19.27889 0,-2.98489 11.93176,-14.46069 15.03524,-14.46069 1.90141,0 7.68028,5.20271 24.72309,22.25816 14.45961,14.47032 22.24167,22.97257 22.24167,24.3 0,1.12301 0.55123,2.59307 1.22496,3.2668 0.96661,0.96661 0.96661,1.63864 0,3.18643 -0.67373,1.07881 -1.22496,2.7591 -1.22496,3.73397 0,0.97713 -9.31108,11.02659 -20.75,22.39554 -21.36039,21.22957 -22.65918,22.16657 -29.25,21.10417 z m -519.12937,-3.19797 c -14.12234,-2.5832 -25.23363,-12.9375 -29.38536,-27.38336 -1.29355,-4.50086 -1.59777,-8.84827 -1.3296,-19 0.32618,-12.34753 0.54446,-13.57922 3.52043,-19.86445 3.89389,-8.22387 10.57337,-15.08822 18.1274,-18.62911 4.81647,-2.25767 7.33114,-2.72178 16.27771,-3.00417 5.81966,-0.1837 12.34466,0.14131 14.5,0.72225 10.62921,2.86495 21.28805,12.83636 25.40664,23.76807 2.6897,7.1391 3.72922,22.21711 2.12644,30.84367 -2.56828,13.8232 -12.07796,26.0979 -23.54218,30.3872 -6.59605,2.4679 -18.53355,3.4711 -25.70148,2.1599 z m 14.76354,-21.9657 c 6.87696,-4.19336 10.61295,-12.18509 10.55301,-22.57414 -0.0879,-15.24335 -10.82305,-26.62107 -20.69675,-21.93569 -14.67827,6.96529 -15.37737,35.8185 -1.07913,44.53748 3.92711,2.39474 7.26374,2.38652 11.22287,-0.0276 z m 58.05771,21.5555 c -5.93902,-1.6764 -10.81084,-6.2474 -13.87541,-13.0186 -2.25196,-4.9758 -2.32512,-6.05812 -2.62694,-38.8683 l -0.31046,-33.75 12.01719,0 12.01718,0 0.29328,28.92873 c 0.27974,27.59353 0.3903,29.05895 2.39543,31.75 4.4921,6.0288 10.04989,5.59767 17.48424,-1.35631 l 4.91361,-4.5961 0,-27.36316 0,-27.36316 12,0 12,0 0,42.5 0,42.5 -10.5,0 -10.5,0 0,-4.0471 0,-4.0471 -3.75,3.002 c -2.0625,1.6511 -5.54204,3.747 -7.73231,4.6576 -5.3482,2.2235 -17.76627,2.782 -23.82581,1.0715 z m 153.30812,0.1942 c -1.925,-0.5437 -4.74808,-2.1724 -6.27351,-3.6194 -5.49854,-5.2158 -5.72649,-7.7549 -5.72649,-63.78621 0,-45.77571 0.1679,-51.27594 1.58179,-51.8185 2.05603,-0.78897 18.78039,-0.78897 20.83642,0 1.41211,0.54188 1.58179,5.77677 1.58179,48.8 0,50.91293 -0.0292,50.59302 4.60965,50.59302 1.95389,0 2.34455,0.79977 3.37513,6.90979 1.67434,9.9266 1.20279,12.4349 -2.48478,13.2172 -4.55113,0.9655 -13.5742,0.8129 -17.5,-0.2959 z m 39.9538,-0.1922 c -10.87662,-2.9336 -16.32823,-10.9666 -16.35742,-24.10306 -0.01,-4.41971 0.54533,-9.67321 1.23367,-11.67443 3.4697,-10.08759 18.89407,-18.09785 39.41995,-20.47176 3.1625,-0.36576 5.75,-1.09612 5.75,-1.62304 0,-2.18432 -3.57201,-6.75972 -6.5144,-8.3443 -4.28734,-2.30889 -10.48787,-1.2873 -19.47463,3.20859 -3.86262,1.93239 -7.80776,3.36583 -8.76696,3.18541 -2.4811,-0.46666 -8.29565,-11.61162 -7.99084,-15.31631 0.21877,-2.65901 1.09929,-3.42317 7.74683,-6.72308 9.87172,-4.90044 16.00574,-6.06554 29.40471,-5.58517 12.13242,0.43496 16.55824,1.95142 21.79168,7.46667 7.15067,7.53573 8.75924,17.53071 8.78584,54.59158 l 0.0178,24.75 -10.375,0 -10.375,0 -0.59542,-2.977 -0.59541,-2.9771 -4.77959,2.9622 c -7.59048,4.7043 -18.94792,6.1601 -28.32578,3.6308 z m 21.0462,-20.71981 c 2.475,-1.12035 5.7375,-3.21965 7.25,-4.66513 2.3832,-2.27759 2.75,-3.40349 2.75,-8.44105 0,-6.6065 0.0226,-6.59466 -8.0685,-4.21643 -10.87729,3.19716 -16.97171,8.55075 -15.39374,13.52249 0.62439,1.96728 5.96106,5.89181 7.96224,5.85534 0.55,-0.01 3.025,-0.93487 5.5,-2.05522 z m 74.27282,20.69121 c -2.32495,-0.7622 -5.77483,-2.2989 -7.66639,-3.415 -3.66291,-2.1611 -4.60643,-1.9622 -4.60643,0.9714 0,1.6556 -0.9697,1.8333 -10,1.8333 l -10,0 0,-58.89301 c 0,-52.78023 0.16418,-58.95601 1.58179,-59.5 2.05603,-0.78897 18.78039,-0.78897 20.83642,0 1.36063,0.52212 1.58179,3.10235 1.58179,18.45399 l 0,17.84701 5.25,-2.44423 c 4.34054,-2.02081 6.80908,-2.44495 14.25,-2.44841 10.93795,-0.005 15.14732,1.07455 20.72474,5.31561 9.01845,6.85761 13.77526,19.65751 13.77526,37.06722 0,10.85438 -1.25927,17.83082 -4.57663,25.35498 -3.12572,7.08944 -11.24236,15.49254 -17.61067,18.23214 -6.42298,2.7631 -17.69496,3.5412 -23.53988,1.625 z m 9.0093,-20.98142 c 4.23343,-1.80384 7.14418,-5.07771 9.74798,-10.96402 2.99901,-6.77976 2.95941,-18.49392 -0.0864,-25.5742 -4.36551,-10.1479 -11.8001,-12.12498 -21.46465,-5.70808 l -5.479,3.63785 0,16.92169 0,16.92169 2.75,1.92551 c 2.80462,1.96375 7.72344,3.98958 10.03212,4.13174 0.70516,0.0434 2.73016,-0.53806 4.5,-1.29218 z m 54.90692,20.90902 c -3.47103,-0.7904 -9.54603,-3.174 -13.5,-5.2969 -9.34887,-5.0195 -9.68375,-6.7416 -3.06414,-15.75706 5.1825,-7.05822 6.84247,-7.71146 11.38193,-4.47908 5.32638,3.79272 13.44583,6.97551 17.82009,6.98538 3.47294,0.008 4.91365,-0.57696 7.29974,-2.96305 4.91889,-4.9189 2.91723,-6.88046 -14.44251,-14.15314 -16.11442,-6.75098 -21.19309,-11.8825 -22.30693,-22.53907 -0.9866,-9.43928 0.95281,-15.76025 6.55421,-21.36165 6.22858,-6.22857 11.60403,-7.97333 24.56521,-7.97333 11.52249,0 17.73607,1.4918 24.75336,5.94296 6.11514,3.87892 6.20032,6.28818 0.5,14.14266 -4.98959,6.87517 -6.52863,7.21035 -13.43355,2.92562 -6.68917,-4.15085 -12.93677,-4.90008 -16.62088,-1.99322 -5.75739,4.54274 -2.48001,7.49533 16.80443,15.13908 14.68578,5.82098 20.24829,13.91704 19.25022,28.01807 -0.79769,11.26993 -7.74739,19.75353 -18.7157,22.84663 -6.33761,1.7872 -20.10156,2.0518 -26.84548,0.5161 z m -493.18904,-33.5379 0,-33 -5,0 -5,0 0,-9.5 0,-9.5 4.85247,0 4.85248,0 0.66922,-8.70641 c 0.85962,-11.18327 2.16973,-15.40075 6.27334,-20.19489 3.66375,-4.28026 5.16313,-4.70553 20.23683,-5.73972 8.93847,-0.61326 20.13291,1.07356 20.09282,3.02766 -0.0126,0.61235 -0.83424,4.26336 -1.82595,8.11336 l -1.80312,7 -7.29845,0 c -6.66074,0 -7.46691,0.22358 -9.22656,2.55883 -1.10961,1.47257 -2.17748,4.97481 -2.51551,8.25 l -0.58738,5.69117 8.13991,0 8.1399,0 0,9.5 0,9.5 -8,0 -8,0 0,33 0,33 -12,0 -12,0 0,-33 z m 206,-9.5 0,-42.5 10.5,0 10.5,0 0,3.5 c 0,4.18778 0.85091,4.36901 4.07569,0.86808 4.1934,-4.5525 9.48711,-6.32342 18.92431,-6.3308 4.675,-0.004 9.15398,0.40705 9.9533,0.9127 1.25998,0.79705 1.19033,2.29152 -0.52358,11.23468 l -1.97688,10.31534 -3.47642,-0.19057 c -1.91203,-0.10481 -4.89634,-0.30529 -6.6318,-0.4455 -4.5774,-0.36983 -10.69024,4.06558 -14.31574,10.38736 l -3.01011,5.24871 -0.009,24.75 -0.009,24.75 -12,0 -12,0 0,-42.5 z"
       id="path4147"
       inkscape:connector-curvature="0" />
  </g>
</svg>
